@startuml
title 基于GitHub的实验管理平台--类图
class USERS {
    <b>USER_ID</b> （用户ID）
    NAME （用户真实姓名）
    GITHUB_USERNAME （用户GitHub账号）
    UPDATE_DATE （用户GitHub账号修改日期）
    PASSWORD （用户密码）
    DISABLE （用户是否禁用）
}
class STUDENTS{
    <b>student_id</b> （学号）
    class （班级）
    result_sum（成绩汇总）
    web_sum （网站正确与否汇总）
}
class TEACHERS{
    <b>TEACHER_ID</b> （老师工号）
    <b>USER_ID</b> （用户ID）
    DEPARTMENT （老师所属学院）
}


class COURSES{
    <b>COURSE_ID</b>（课程编号）
    <b>TEACHER_ID</b>（授课教师工号）
    COURSE_NAME（课程名称）
    TERM（学期）
    DEPARTMENT（开课学院）
    NUMBER （上课人数）
}
class SCORES {
    <b>STUDENT_ID</b> （学号）
    <b>EXAMINATION_ID</b> （实验编号）
    <b>COURSE_ID</b>（课程编号）
    RESULT （分数）
    COMMENT （评价）
    UPDATE_DATE （评改日期）
}

class TESTS{
    <b>TESTS_ID</b> （实验编号）
    <b>COURSE_ID</b> （课程的编号）
    TESTS_NAME （实验名称）
    TESTS_CONTENT  （实验内容）
}

class SCOREITEM {
    <b>SCOREITEM_ID</b> （评分项的编号）
    SCORE（该评分项的分值）
    RATE （评分项占比）

}

class TEACHERS_COURSES{
    <b>TEACHER_ID</b> （老师的编号）
    <b>COURSE_ID</b> （课程的编号）
    TIME （选课时间）
    CHOOSE_NUMBER （选课教师人数上限）

}
class STUDENTS_COURSES{
    <b>COURSE_ID</b> （课程的编号）
    <b>STUDENT_ID</b> （学生的编号）
    CHOOSE_NUMBER （选课学生人数上限）
}


USERS <|- STUDENTS
USERS <|-- TEACHERS

SCOREITEM "n" -- "1"SCORES
STUDENTS "1" -- "n"  SCORES
TESTS "1" -- "n"  SCORES
TESTS "n" -- "1" COURSES
TEACHERS_COURSES "1" -- "n" COURSES
STUDENTS_COURSES "1" -- "n" COURSES
@enduml